<?xml version="1.0" encoding="utf-8"?>
<!-- Generator: Adobe Illustrator 16.0.0, SVG Export Plug-In . SVG Version: 6.00 Build 0)  -->
<!DOCTYPE svg PUBLIC "-//W3C//DTD SVG 1.1//EN" "http://www.w3.org/Graphics/SVG/1.1/DTD/svg11.dtd">
<svg version="1.1" id="Layer_1" xmlns="http://www.w3.org/2000/svg" xmlns:xlink="http://www.w3.org/1999/xlink" x="0px" y="0px"
	 width="379.03125px" height="107.7949219px" viewBox="0.0002441 0.0002441 379.03125 107.7949219"
	 enable-background="new 0.0002441 0.0002441 379.03125 107.7949219" xml:space="preserve">
<g>
	<g>
		<path fill="#ffffff" d="M85.9289551,27.9953613h11.0957031v55.7011719H85.9289551V27.9953613z"/>
		<path fill="#ffffff" d="M108.1945801,83.6965332V28.0324707h3.7109375l34.8828125,34.8828125V28.0324707h11.1328125v55.6640625
			h-4.0820313l-34.5117188-34.5117188v34.5117188H108.1945801z"/>
		<path fill="#ffffff" d="M169.4250488,83.6965332V28.0324707h39.1503906v10.390625h-28.0175781v11.875h20.6699219v10.3535156
			h-20.6699219v23.0449219H169.4250488z"/>
		<path fill="#ffffff" d="M221.8234863,75.7004395c-5.3193359-5.3320313-7.9785156-11.9433594-7.9785156-19.8359375
			c0-7.9160156,2.6591797-14.5341797,7.9785156-19.8535156c5.3193359-5.3183594,11.9365234-7.9785156,19.8535156-7.9785156
			s14.5341797,2.6601563,19.8535156,7.9785156c5.3193359,5.3193359,7.9785156,11.9375,7.9785156,19.8535156
			c0,7.9179688-2.6591797,14.5351563-7.9785156,19.8535156c-5.3193359,5.3203125-11.9365234,7.9785156-19.8535156,7.9785156
			S227.1428223,81.0324707,221.8234863,75.7004395z M241.7141113,73.3059082c4.9228516,0,8.9306641-1.6699219,12.0234375-5.0097656
			s4.6386719-7.4824219,4.6386719-12.4316406c0-4.9472656-1.5458984-9.0917969-4.6386719-12.4316406
			s-7.125-5.0097656-12.0976563-5.0097656c-4.9228516,0-8.9306641,1.6699219-12.0234375,5.0097656
			s-4.6386719,7.484375-4.6386719,12.4316406c0,4.9492188,1.5458984,9.0917969,4.6386719,12.4316406
			S236.7414551,73.3059082,241.7141113,73.3059082z"/>
		<path fill="#ffffff" d="M277.6359863,83.6965332V28.0695801l40.8945313-0.0371094v10.390625h-29.7617188v11.875h22.3027344
			v10.3535156h-22.3027344v12.6542969h29.6875v10.390625H277.6359863z"/>
		<path fill="#ffffff" d="M375.1594238,28.0324707v10.390625h-18.5546875v45.2734375h-11.1328125V38.4230957h-18.5546875v-10.390625
			H375.1594238z"/>
	</g>
	<g>
		<polygon fill="#006494" points="5.2883301,61.8430176 10.8674316,68.3898926 22.2561035,62.520752 21.6477051,66.5852051
			13.0803223,70.9855957 19.4924316,78.5070801 35.4211426,70.2844238 8.8273926,38.4416504 5.145752,61.9641113
			5.145752,61.9641113 		"/>
		<g>
			<g>
				<path fill="#1B98E0" d="M65.0100098,31.388916L5.4104004,61.7902832l3.4560547-23.9443359H8.8635254l59.7109375-30.484375
					C67.3913574,15.2717285,66.1740723,23.4787598,65.0100098,31.388916z"/>
				<path fill="#1B98E0" d="M5.1721191,62.3059082L8.6809082,38.185791l0.171875,0.0244141l-0.0751953-0.1630859
					L68.8137207,7.2111816l-3.6191406,24.2070313l-0.1835938-0.0273438l0.0839844,0.1640625L5.1721191,62.3059082z
					 M9.0383301,38.3342285l-3.390625,23.3056641l59.1904297-30.3740234l3.4970703-23.3867188L9.0383301,38.3342285z"/>
			</g>
		</g>
		<g>
			<polygon fill="#006494" points="18.2121582,64.8625488 16.114502,62.3742676 4.6320801,68.4445801 4.0793457,72.145752 			"/>
			<path fill="#006494" d="M17.6604004,91.4055176l16.0009766-8.21875L20.4143066,67.473877L4.1896973,75.8098145
				C8.6970215,80.9934082,13.1872559,86.192627,17.6604004,91.4055176z"/>
		</g>
		<polygon fill="#1B98E0" points="4.4709473,68.3996582 4.0197754,71.9172363 22.2561035,62.520752 21.6477051,66.5852051
			3.8723145,75.7141113 12.7844238,85.7609863 60.2092285,61.333252 63.5646973,38.0168457 		"/>
		<g>
			<g>
				<path fill="#1B98E0" d="M56.0588379,89.473877l-28.4423828,14.7695313L15.0148926,88.6516113l44.6103516-23.0351563
					C58.4362793,73.5695801,57.2473145,81.520752,56.0588379,89.473877z"/>
				<path fill="#1B98E0" d="M27.5666504,104.4816895l-12.8417969-15.890625
					c15.046875-7.7695313,30.09375-15.5390625,45.140625-23.3085938l-3.6308594,24.2871094
					C46.8562012,94.4641113,36.9616699,99.6105957,27.5666504,104.4816895z M15.3059082,88.7141113l12.3603516,15.2929688
					l28.2216797-14.65625l3.4980469-23.3984375L15.3059082,88.7141113z"/>
			</g>
		</g>
		<g>
			<g>
				<g>
					<g>
						<defs>
							<path id="SVGID_1_" d="M64.7189941,31.388916L5.3928223,61.973877l3.625-23.7617188
								c19.8359375-10.1972656,39.6875-20.4267578,59.5136719-30.6669922l-3.8125,23.8457031V31.388916z"/>
						</defs>
						<clipPath id="SVGID_2_">
							<use xlink:href="#SVGID_1_"  overflow="visible"/>
						</clipPath>
						<polygon clip-path="url(#SVGID_2_)" fill="#006494" points="68.8244629,7.8459473 5.7189941,38.6887207 5.7189941,7.8459473
													"/>
					</g>
					<g>
						<defs>
							<path id="SVGID_3_" d="M65.5441895,18.3850098L25.8596191,72.052002l-7.2568359-22.9140625
								c13.28125-17.9189453,26.5620117-35.8720703,39.8164063-53.8242188l7.1259766,23.0732422L65.5441895,18.3850098z"/>
						</defs>
						<clipPath id="SVGID_4_">
							<use xlink:href="#SVGID_3_"  overflow="visible"/>
						</clipPath>
						<path clip-path="url(#SVGID_4_)" fill="#006494" d="M5.661377,38.6887207
							C26.7150879,28.3078613,47.7687988,17.927002,68.8225098,7.5461426
							C47.7687988,17.927002,26.7150879,28.3078613,5.661377,38.6887207z"/>
					</g>
					<g>
						<defs>
							<path id="SVGID_5_" d="M64.7189941,31.388916L5.3928223,61.973877l3.625-23.7617188
								c19.8359375-10.1972656,39.6875-20.4267578,59.5136719-30.6669922l-3.8125,23.8457031V31.388916z"/>
						</defs>
						<clipPath id="SVGID_6_">
							<use xlink:href="#SVGID_5_"  overflow="visible"/>
						</clipPath>
						<polygon clip-path="url(#SVGID_6_)" fill="#006494" points="68.7189941,8.4191895 5.7189941,39.5627441 5.7189941,38.6887207
							68.8225098,7.8459473 68.7189941,7.8459473 						"/>
					</g>
					<g>
						<defs>
							<path id="SVGID_7_" d="M64.7189941,31.388916L5.3928223,61.973877l3.625-23.7617188
								c19.8359375-10.1972656,39.6875-20.4267578,59.5136719-30.6669922l-3.8125,23.8457031V31.388916z"/>
						</defs>
						<clipPath id="SVGID_8_">
							<use xlink:href="#SVGID_7_"  overflow="visible"/>
						</clipPath>
						<polygon clip-path="url(#SVGID_8_)" fill="#006494" points="68.7189941,11.0422363 5.7189941,42.1867676
							5.7189941,39.5627441 68.7189941,8.4191895 						"/>
					</g>
					<g>
						<defs>
							<path id="SVGID_9_" d="M64.7189941,31.388916L5.3928223,61.973877l3.625-23.7617188
								c19.8359375-10.1972656,39.6875-20.4267578,59.5136719-30.6669922l-3.8125,23.8457031V31.388916z"/>
						</defs>
						<clipPath id="SVGID_10_">
							<use xlink:href="#SVGID_9_"  overflow="visible"/>
						</clipPath>
						<polygon clip-path="url(#SVGID_10_)" fill="#006494" points="68.7189941,13.8859863 5.7189941,45.0285645
							5.7189941,42.1867676 68.7189941,11.0422363 						"/>
					</g>
					<g>
						<defs>
							<path id="SVGID_11_" d="M64.7189941,31.388916L5.3928223,61.973877l3.625-23.7617188
								c19.8359375-10.1972656,39.6875-20.4267578,59.5136719-30.6669922l-3.8125,23.8457031V31.388916z"/>
						</defs>
						<clipPath id="SVGID_12_">
							<use xlink:href="#SVGID_11_"  overflow="visible"/>
						</clipPath>
						<polygon clip-path="url(#SVGID_12_)" fill="#006494" points="68.7189941,16.5090332 5.7189941,47.6535645
							5.7189941,45.0285645 68.7189941,13.8859863 						"/>
					</g>
					<g>
						<defs>
							<path id="SVGID_13_" d="M64.7189941,31.388916L5.3928223,61.973877l3.625-23.7617188
								c19.8359375-10.1972656,39.6875-20.4267578,59.5136719-30.6669922l-3.8125,23.8457031V31.388916z"/>
						</defs>
						<clipPath id="SVGID_14_">
							<use xlink:href="#SVGID_13_"  overflow="visible"/>
						</clipPath>
						<polygon clip-path="url(#SVGID_14_)" fill="#006494" points="68.7189941,17.0559082 5.7189941,48.1994629
							5.7189941,47.6535645 68.7189941,16.5090332 						"/>
					</g>
					<g>
						<defs>
							<path id="SVGID_15_" d="M64.7189941,31.388916L5.3928223,61.973877l3.625-23.7617188
								c19.8359375-10.1972656,39.6875-20.4267578,59.5136719-30.6669922l-3.8125,23.8457031V31.388916z"/>
						</defs>
						<clipPath id="SVGID_16_">
							<use xlink:href="#SVGID_15_"  overflow="visible"/>
						</clipPath>
						<polygon clip-path="url(#SVGID_16_)" fill="#006494" points="68.7189941,17.1184082 5.7189941,48.2629395
							5.7189941,48.1984863 68.7189941,17.0559082 						"/>
					</g>
					<g>
						<defs>
							<path id="SVGID_17_" d="M64.7189941,31.388916L5.3928223,61.973877l3.625-23.7617188
								c19.8359375-10.1972656,39.6875-20.4267578,59.5136719-30.6669922l-3.8125,23.8457031V31.388916z"/>
						</defs>
						<clipPath id="SVGID_18_">
							<use xlink:href="#SVGID_17_"  overflow="visible"/>
						</clipPath>
						<polygon clip-path="url(#SVGID_18_)" fill="#006595" points="68.7189941,17.1818848 5.7189941,48.3254395
							5.7189941,48.2629395 68.7189941,17.1184082 						"/>
					</g>
					<g>
						<defs>
							<path id="SVGID_19_" d="M64.7189941,31.388916L5.3928223,61.973877l3.625-23.7617188
								c19.8359375-10.1972656,39.6875-20.4267578,59.5136719-30.6669922l-3.8125,23.8457031V31.388916z"/>
						</defs>
						<clipPath id="SVGID_20_">
							<use xlink:href="#SVGID_19_"  overflow="visible"/>
						</clipPath>
						<polygon clip-path="url(#SVGID_20_)" fill="#016596" points="68.7189941,17.2443848 5.7189941,48.388916
							5.7189941,48.3254395 68.7189941,17.1818848 						"/>
					</g>
					<g>
						<defs>
							<path id="SVGID_21_" d="M64.7189941,31.388916L5.3928223,61.973877l3.625-23.7617188
								c19.8359375-10.1972656,39.6875-20.4267578,59.5136719-30.6669922l-3.8125,23.8457031V31.388916z"/>
						</defs>
						<clipPath id="SVGID_22_">
							<use xlink:href="#SVGID_21_"  overflow="visible"/>
						</clipPath>
						<polygon clip-path="url(#SVGID_22_)" fill="#016697" points="68.7189941,17.3078613 5.7189941,48.451416 5.7189941,48.388916
							68.7189941,17.2443848 						"/>
					</g>
					<g>
						<defs>
							<path id="SVGID_23_" d="M64.7189941,31.388916L5.3928223,61.973877l3.625-23.7617188
								c19.8359375-10.1972656,39.6875-20.4267578,59.5136719-30.6669922l-3.8125,23.8457031V31.388916z"/>
						</defs>
						<clipPath id="SVGID_24_">
							<use xlink:href="#SVGID_23_"  overflow="visible"/>
						</clipPath>
						<polygon clip-path="url(#SVGID_24_)" fill="#016798" points="68.7189941,17.3723145 5.7189941,48.5158691
							5.7189941,48.451416 68.7189941,17.3078613 						"/>
					</g>
					<g>
						<defs>
							<path id="SVGID_25_" d="M64.7189941,31.388916L5.3928223,61.973877l3.625-23.7617188
								c19.8359375-10.1972656,39.6875-20.4267578,59.5136719-30.6669922l-3.8125,23.8457031V31.388916z"/>
						</defs>
						<clipPath id="SVGID_26_">
							<use xlink:href="#SVGID_25_"  overflow="visible"/>
						</clipPath>
						<polygon clip-path="url(#SVGID_26_)" fill="#026799" points="68.7189941,17.4348145 5.7189941,48.5793457
							5.7189941,48.5158691 68.7189941,17.3723145 						"/>
					</g>
					<g>
						<defs>
							<path id="SVGID_27_" d="M64.7189941,31.388916L5.3928223,61.973877l3.625-23.7617188
								c19.8359375-10.1972656,39.6875-20.4267578,59.5136719-30.6669922l-3.8125,23.8457031V31.388916z"/>
						</defs>
						<clipPath id="SVGID_28_">
							<use xlink:href="#SVGID_27_"  overflow="visible"/>
						</clipPath>
						<polygon clip-path="url(#SVGID_28_)" fill="#02689A" points="68.7189941,17.498291 5.7189941,48.6418457
							5.7189941,48.5793457 68.7189941,17.4348145 						"/>
					</g>
					<g>
						<defs>
							<path id="SVGID_29_" d="M64.7189941,31.388916L5.3928223,61.973877l3.625-23.7617188
								c19.8359375-10.1972656,39.6875-20.4267578,59.5136719-30.6669922l-3.8125,23.8457031V31.388916z"/>
						</defs>
						<clipPath id="SVGID_30_">
							<use xlink:href="#SVGID_29_"  overflow="visible"/>
						</clipPath>
						<polygon clip-path="url(#SVGID_30_)" fill="#03699B" points="68.7189941,17.560791 5.7189941,48.7053223
							5.7189941,48.6418457 68.7189941,17.498291 						"/>
					</g>
					<g>
						<defs>
							<path id="SVGID_31_" d="M64.7189941,31.388916L5.3928223,61.973877l3.625-23.7617188
								c19.8359375-10.1972656,39.6875-20.4267578,59.5136719-30.6669922l-3.8125,23.8457031V31.388916z"/>
						</defs>
						<clipPath id="SVGID_32_">
							<use xlink:href="#SVGID_31_"  overflow="visible"/>
						</clipPath>
						<polygon clip-path="url(#SVGID_32_)" fill="#036A9C" points="68.7189941,17.6242676 5.7189941,48.7678223
							5.7189941,48.7053223 68.7189941,17.560791 						"/>
					</g>
					<g>
						<defs>
							<path id="SVGID_33_" d="M64.7189941,31.388916L5.3928223,61.973877l3.625-23.7617188
								c19.8359375-10.1972656,39.6875-20.4267578,59.5136719-30.6669922l-3.8125,23.8457031V31.388916z"/>
						</defs>
						<clipPath id="SVGID_34_">
							<use xlink:href="#SVGID_33_"  overflow="visible"/>
						</clipPath>
						<polygon clip-path="url(#SVGID_34_)" fill="#036A9D" points="68.7189941,17.6887207 5.7189941,48.8312988
							5.7189941,48.7678223 68.7189941,17.6242676 						"/>
					</g>
					<g>
						<defs>
							<path id="SVGID_35_" d="M64.7189941,31.388916L5.3928223,61.973877l3.625-23.7617188
								c19.8359375-10.1972656,39.6875-20.4267578,59.5136719-30.6669922l-3.8125,23.8457031V31.388916z"/>
						</defs>
						<clipPath id="SVGID_36_">
							<use xlink:href="#SVGID_35_"  overflow="visible"/>
						</clipPath>
						<polygon clip-path="url(#SVGID_36_)" fill="#046B9E" points="68.7189941,17.7512207 5.7189941,48.895752
							5.7189941,48.8312988 68.7189941,17.6887207 						"/>
					</g>
					<g>
						<defs>
							<path id="SVGID_37_" d="M64.7189941,31.388916L5.3928223,61.973877l3.625-23.7617188
								c19.8359375-10.1972656,39.6875-20.4267578,59.5136719-30.6669922l-3.8125,23.8457031V31.388916z"/>
						</defs>
						<clipPath id="SVGID_38_">
							<use xlink:href="#SVGID_37_"  overflow="visible"/>
						</clipPath>
						<polygon clip-path="url(#SVGID_38_)" fill="#046C9F" points="68.7189941,17.8146973 5.7189941,48.958252 5.7189941,48.895752
							68.7189941,17.7512207 						"/>
					</g>
					<g>
						<defs>
							<path id="SVGID_39_" d="M64.7189941,31.388916L5.3928223,61.973877l3.625-23.7617188
								c19.8359375-10.1972656,39.6875-20.4267578,59.5136719-30.6669922l-3.8125,23.8457031V31.388916z"/>
						</defs>
						<clipPath id="SVGID_40_">
							<use xlink:href="#SVGID_39_"  overflow="visible"/>
						</clipPath>
						<polygon clip-path="url(#SVGID_40_)" fill="#046CA0" points="68.7189941,17.8771973 5.7189941,49.0217285
							5.7189941,48.958252 68.7189941,17.8146973 						"/>
					</g>
					<g>
						<defs>
							<path id="SVGID_41_" d="M64.7189941,31.388916L5.3928223,61.973877l3.625-23.7617188
								c19.8359375-10.1972656,39.6875-20.4267578,59.5136719-30.6669922l-3.8125,23.8457031V31.388916z"/>
						</defs>
						<clipPath id="SVGID_42_">
							<use xlink:href="#SVGID_41_"  overflow="visible"/>
						</clipPath>
						<polygon clip-path="url(#SVGID_42_)" fill="#056DA1" points="68.7189941,17.9406738 5.7189941,49.0842285
							5.7189941,49.0217285 68.7189941,17.8771973 						"/>
					</g>
					<g>
						<defs>
							<path id="SVGID_43_" d="M64.7189941,31.388916L5.3928223,61.973877l3.625-23.7617188
								c19.8359375-10.1972656,39.6875-20.4267578,59.5136719-30.6669922l-3.8125,23.8457031V31.388916z"/>
						</defs>
						<clipPath id="SVGID_44_">
							<use xlink:href="#SVGID_43_"  overflow="visible"/>
						</clipPath>
						<polygon clip-path="url(#SVGID_44_)" fill="#056EA2" points="68.7189941,18.005127 5.7189941,49.1486816
							5.7189941,49.0842285 68.7189941,17.9406738 						"/>
					</g>
					<g>
						<defs>
							<path id="SVGID_45_" d="M64.7189941,31.388916L5.3928223,61.973877l3.625-23.7617188
								c19.8359375-10.1972656,39.6875-20.4267578,59.5136719-30.6669922l-3.8125,23.8457031V31.388916z"/>
						</defs>
						<clipPath id="SVGID_46_">
							<use xlink:href="#SVGID_45_"  overflow="visible"/>
						</clipPath>
						<polygon clip-path="url(#SVGID_46_)" fill="#056EA3" points="68.7189941,18.067627 5.7189941,49.2121582
							5.7189941,49.1486816 68.7189941,18.005127 						"/>
					</g>
					<g>
						<defs>
							<path id="SVGID_47_" d="M64.7189941,31.388916L5.3928223,61.973877l3.625-23.7617188
								c19.8359375-10.1972656,39.6875-20.4267578,59.5136719-30.6669922l-3.8125,23.8457031V31.388916z"/>
						</defs>
						<clipPath id="SVGID_48_">
							<use xlink:href="#SVGID_47_"  overflow="visible"/>
						</clipPath>
						<polygon clip-path="url(#SVGID_48_)" fill="#066FA4" points="68.7189941,18.1311035 5.7189941,49.2746582
							5.7189941,49.2121582 68.7189941,18.067627 						"/>
					</g>
					<g>
						<defs>
							<path id="SVGID_49_" d="M64.7189941,31.388916L5.3928223,61.973877l3.625-23.7617188
								c19.8359375-10.1972656,39.6875-20.4267578,59.5136719-30.6669922l-3.8125,23.8457031V31.388916z"/>
						</defs>
						<clipPath id="SVGID_50_">
							<use xlink:href="#SVGID_49_"  overflow="visible"/>
						</clipPath>
						<polygon clip-path="url(#SVGID_50_)" fill="#0670A5" points="68.7189941,18.1936035 5.7189941,49.3381348
							5.7189941,49.2746582 68.7189941,18.1311035 						"/>
					</g>
					<g>
						<defs>
							<path id="SVGID_51_" d="M64.7189941,31.388916L5.3928223,61.973877l3.625-23.7617188
								c19.8359375-10.1972656,39.6875-20.4267578,59.5136719-30.6669922l-3.8125,23.8457031V31.388916z"/>
						</defs>
						<clipPath id="SVGID_52_">
							<use xlink:href="#SVGID_51_"  overflow="visible"/>
						</clipPath>
						<polygon clip-path="url(#SVGID_52_)" fill="#0670A6" points="68.7189941,18.2580566 5.7189941,49.4006348
							5.7189941,49.3381348 68.7189941,18.1936035 						"/>
					</g>
					<g>
						<defs>
							<path id="SVGID_53_" d="M64.7189941,31.388916L5.3928223,61.973877l3.625-23.7617188
								c19.8359375-10.1972656,39.6875-20.4267578,59.5136719-30.6669922l-3.8125,23.8457031V31.388916z"/>
						</defs>
						<clipPath id="SVGID_54_">
							<use xlink:href="#SVGID_53_"  overflow="visible"/>
						</clipPath>
						<polygon clip-path="url(#SVGID_54_)" fill="#0771A7" points="68.7189941,18.3215332 5.7189941,49.4650879
							5.7189941,49.4006348 68.7189941,18.2580566 						"/>
					</g>
					<g>
						<defs>
							<path id="SVGID_55_" d="M64.7189941,31.388916L5.3928223,61.973877l3.625-23.7617188
								c19.8359375-10.1972656,39.6875-20.4267578,59.5136719-30.6669922l-3.8125,23.8457031V31.388916z"/>
						</defs>
						<clipPath id="SVGID_56_">
							<use xlink:href="#SVGID_55_"  overflow="visible"/>
						</clipPath>
						<polygon clip-path="url(#SVGID_56_)" fill="#0772A8" points="68.7189941,18.3840332 5.7189941,49.5285645
							5.7189941,49.4650879 68.7189941,18.3215332 						"/>
					</g>
					<g>
						<defs>
							<path id="SVGID_57_" d="M64.7189941,31.388916L5.3928223,61.973877l3.625-23.7617188
								c19.8359375-10.1972656,39.6875-20.4267578,59.5136719-30.6669922l-3.8125,23.8457031V31.388916z"/>
						</defs>
						<clipPath id="SVGID_58_">
							<use xlink:href="#SVGID_57_"  overflow="visible"/>
						</clipPath>
						<polygon clip-path="url(#SVGID_58_)" fill="#0873A9" points="68.7189941,18.4475098 5.7189941,49.5910645
							5.7189941,49.5285645 68.7189941,18.3840332 						"/>
					</g>
					<g>
						<defs>
							<path id="SVGID_59_" d="M64.7189941,31.388916L5.3928223,61.973877l3.625-23.7617188
								c19.8359375-10.1972656,39.6875-20.4267578,59.5136719-30.6669922l-3.8125,23.8457031V31.388916z"/>
						</defs>
						<clipPath id="SVGID_60_">
							<use xlink:href="#SVGID_59_"  overflow="visible"/>
						</clipPath>
						<polygon clip-path="url(#SVGID_60_)" fill="#0873AA" points="68.7189941,18.5100098 5.7189941,49.654541
							5.7189941,49.5910645 68.7189941,18.4475098 						"/>
					</g>
					<g>
						<defs>
							<path id="SVGID_61_" d="M64.7189941,31.388916L5.3928223,61.973877l3.625-23.7617188
								c19.8359375-10.1972656,39.6875-20.4267578,59.5136719-30.6669922l-3.8125,23.8457031V31.388916z"/>
						</defs>
						<clipPath id="SVGID_62_">
							<use xlink:href="#SVGID_61_"  overflow="visible"/>
						</clipPath>
						<polygon clip-path="url(#SVGID_62_)" fill="#0874AB" points="68.7189941,18.5734863 5.7189941,49.7189941
							5.7189941,49.654541 68.7189941,18.5100098 						"/>
					</g>
					<g>
						<defs>
							<path id="SVGID_63_" d="M64.7189941,31.388916L5.3928223,61.973877l3.625-23.7617188
								c19.8359375-10.1972656,39.6875-20.4267578,59.5136719-30.6669922l-3.8125,23.8457031V31.388916z"/>
						</defs>
						<clipPath id="SVGID_64_">
							<use xlink:href="#SVGID_63_"  overflow="visible"/>
						</clipPath>
						<polygon clip-path="url(#SVGID_64_)" fill="#0975AC" points="68.7189941,18.6379395 5.7189941,49.7814941
							5.7189941,49.7189941 68.7189941,18.5734863 						"/>
					</g>
					<g>
						<defs>
							<path id="SVGID_65_" d="M64.7189941,31.388916L5.3928223,61.973877l3.625-23.7617188
								c19.8359375-10.1972656,39.6875-20.4267578,59.5136719-30.6669922l-3.8125,23.8457031V31.388916z"/>
						</defs>
						<clipPath id="SVGID_66_">
							<use xlink:href="#SVGID_65_"  overflow="visible"/>
						</clipPath>
						<polygon clip-path="url(#SVGID_66_)" fill="#0975AD" points="68.7189941,18.7004395 5.7189941,49.8449707
							5.7189941,49.7814941 68.7189941,18.6379395 						"/>
					</g>
					<g>
						<defs>
							<path id="SVGID_67_" d="M64.7189941,31.388916L5.3928223,61.973877l3.625-23.7617188
								c19.8359375-10.1972656,39.6875-20.4267578,59.5136719-30.6669922l-3.8125,23.8457031V31.388916z"/>
						</defs>
						<clipPath id="SVGID_68_">
							<use xlink:href="#SVGID_67_"  overflow="visible"/>
						</clipPath>
						<polygon clip-path="url(#SVGID_68_)" fill="#0976AE" points="68.7189941,18.763916 5.7189941,49.9074707
							5.7189941,49.8449707 68.7189941,18.7004395 						"/>
					</g>
					<g>
						<defs>
							<path id="SVGID_69_" d="M64.7189941,31.388916L5.3928223,61.973877l3.625-23.7617188
								c19.8359375-10.1972656,39.6875-20.4267578,59.5136719-30.6669922l-3.8125,23.8457031V31.388916z"/>
						</defs>
						<clipPath id="SVGID_70_">
							<use xlink:href="#SVGID_69_"  overflow="visible"/>
						</clipPath>
						<polygon clip-path="url(#SVGID_70_)" fill="#0A77AF" points="68.7189941,18.826416 5.7189941,49.9709473
							5.7189941,49.9074707 68.7189941,18.763916 						"/>
					</g>
					<g>
						<defs>
							<path id="SVGID_71_" d="M64.7189941,31.388916L5.3928223,61.973877l3.625-23.7617188
								c19.8359375-10.1972656,39.6875-20.4267578,59.5136719-30.6669922l-3.8125,23.8457031V31.388916z"/>
						</defs>
						<clipPath id="SVGID_72_">
							<use xlink:href="#SVGID_71_"  overflow="visible"/>
						</clipPath>
						<polygon clip-path="url(#SVGID_72_)" fill="#0A77B0" points="68.7189941,18.8908691 5.7189941,50.0334473
							5.7189941,49.9709473 68.7189941,18.826416 						"/>
					</g>
					<g>
						<defs>
							<path id="SVGID_73_" d="M64.7189941,31.388916L5.3928223,61.973877l3.625-23.7617188
								c19.8359375-10.1972656,39.6875-20.4267578,59.5136719-30.6669922l-3.8125,23.8457031V31.388916z"/>
						</defs>
						<clipPath id="SVGID_74_">
							<use xlink:href="#SVGID_73_"  overflow="visible"/>
						</clipPath>
						<polygon clip-path="url(#SVGID_74_)" fill="#0A78B1" points="68.7189941,18.9543457 5.7189941,50.0979004
							5.7189941,50.0334473 68.7189941,18.8908691 						"/>
					</g>
					<g>
						<defs>
							<path id="SVGID_75_" d="M64.7189941,31.388916L5.3928223,61.973877l3.625-23.7617188
								c19.8359375-10.1972656,39.6875-20.4267578,59.5136719-30.6669922l-3.8125,23.8457031V31.388916z"/>
						</defs>
						<clipPath id="SVGID_76_">
							<use xlink:href="#SVGID_75_"  overflow="visible"/>
						</clipPath>
						<polygon clip-path="url(#SVGID_76_)" fill="#0B79B2" points="68.7189941,19.0168457 5.7189941,50.161377
							5.7189941,50.0979004 68.7189941,18.9543457 						"/>
					</g>
					<g>
						<defs>
							<path id="SVGID_77_" d="M64.7189941,31.388916L5.3928223,61.973877l3.625-23.7617188
								c19.8359375-10.1972656,39.6875-20.4267578,59.5136719-30.6669922l-3.8125,23.8457031V31.388916z"/>
						</defs>
						<clipPath id="SVGID_78_">
							<use xlink:href="#SVGID_77_"  overflow="visible"/>
						</clipPath>
						<polygon clip-path="url(#SVGID_78_)" fill="#0B79B3" points="68.7189941,19.0803223 5.7189941,50.223877 5.7189941,50.161377
							68.7189941,19.0168457 						"/>
					</g>
					<g>
						<defs>
							<path id="SVGID_79_" d="M64.7189941,31.388916L5.3928223,61.973877l3.625-23.7617188
								c19.8359375-10.1972656,39.6875-20.4267578,59.5136719-30.6669922l-3.8125,23.8457031V31.388916z"/>
						</defs>
						<clipPath id="SVGID_80_">
							<use xlink:href="#SVGID_79_"  overflow="visible"/>
						</clipPath>
						<polygon clip-path="url(#SVGID_80_)" fill="#0C7AB4" points="68.7189941,19.1428223 5.7189941,50.2873535
							5.7189941,50.223877 68.7189941,19.0803223 						"/>
					</g>
					<g>
						<defs>
							<path id="SVGID_81_" d="M64.7189941,31.388916L5.3928223,61.973877l3.625-23.7617188
								c19.8359375-10.1972656,39.6875-20.4267578,59.5136719-30.6669922l-3.8125,23.8457031V31.388916z"/>
						</defs>
						<clipPath id="SVGID_82_">
							<use xlink:href="#SVGID_81_"  overflow="visible"/>
						</clipPath>
						<polygon clip-path="url(#SVGID_82_)" fill="#0C7BB5" points="68.7189941,19.2072754 5.7189941,50.3518066
							5.7189941,50.2873535 68.7189941,19.1428223 						"/>
					</g>
					<g>
						<defs>
							<path id="SVGID_83_" d="M64.7189941,31.388916L5.3928223,61.973877l3.625-23.7617188
								c19.8359375-10.1972656,39.6875-20.4267578,59.5136719-30.6669922l-3.8125,23.8457031V31.388916z"/>
						</defs>
						<clipPath id="SVGID_84_">
							<use xlink:href="#SVGID_83_"  overflow="visible"/>
						</clipPath>
						<polygon clip-path="url(#SVGID_84_)" fill="#0C7CB6" points="68.7189941,19.270752 5.7189941,50.4152832
							5.7189941,50.3518066 68.7189941,19.2072754 						"/>
					</g>
					<g>
						<defs>
							<path id="SVGID_85_" d="M64.7189941,31.388916L5.3928223,61.973877l3.625-23.7617188
								c19.8359375-10.1972656,39.6875-20.4267578,59.5136719-30.6669922l-3.8125,23.8457031V31.388916z"/>
						</defs>
						<clipPath id="SVGID_86_">
							<use xlink:href="#SVGID_85_"  overflow="visible"/>
						</clipPath>
						<polygon clip-path="url(#SVGID_86_)" fill="#0D7CB7" points="68.7189941,19.333252 5.7189941,50.4777832
							5.7189941,50.4152832 68.7189941,19.270752 						"/>
					</g>
					<g>
						<defs>
							<path id="SVGID_87_" d="M64.7189941,31.388916L5.3928223,61.973877l3.625-23.7617188
								c19.8359375-10.1972656,39.6875-20.4267578,59.5136719-30.6669922l-3.8125,23.8457031V31.388916z"/>
						</defs>
						<clipPath id="SVGID_88_">
							<use xlink:href="#SVGID_87_"  overflow="visible"/>
						</clipPath>
						<polygon clip-path="url(#SVGID_88_)" fill="#0D7DB8" points="68.7189941,19.3967285 5.7189941,50.5402832
							5.7189941,50.4777832 68.7189941,19.333252 						"/>
					</g>
					<g>
						<defs>
							<path id="SVGID_89_" d="M64.7189941,31.388916L5.3928223,61.973877l3.625-23.7617188
								c19.8359375-10.1972656,39.6875-20.4267578,59.5136719-30.6669922l-3.8125,23.8457031V31.388916z"/>
						</defs>
						<clipPath id="SVGID_90_">
							<use xlink:href="#SVGID_89_"  overflow="visible"/>
						</clipPath>
						<polygon clip-path="url(#SVGID_90_)" fill="#0D7EB9" points="68.7189941,19.4611816 5.7189941,50.6047363
							5.7189941,50.5402832 68.7189941,19.3967285 						"/>
					</g>
					<g>
						<defs>
							<path id="SVGID_91_" d="M64.7189941,31.388916L5.3928223,61.973877l3.625-23.7617188
								c19.8359375-10.1972656,39.6875-20.4267578,59.5136719-30.6669922l-3.8125,23.8457031V31.388916z"/>
						</defs>
						<clipPath id="SVGID_92_">
							<use xlink:href="#SVGID_91_"  overflow="visible"/>
						</clipPath>
						<polygon clip-path="url(#SVGID_92_)" fill="#0E7EBB" points="68.7189941,19.5236816 5.7189941,50.6691895
							5.7189941,50.6047363 68.7189941,19.4611816 						"/>
					</g>
					<g>
						<defs>
							<path id="SVGID_93_" d="M64.7189941,31.388916L5.3928223,61.973877l3.625-23.7617188
								c19.8359375-10.1972656,39.6875-20.4267578,59.5136719-30.6669922l-3.8125,23.8457031V31.388916z"/>
						</defs>
						<clipPath id="SVGID_94_">
							<use xlink:href="#SVGID_93_"  overflow="visible"/>
						</clipPath>
						<polygon clip-path="url(#SVGID_94_)" fill="#0E7FBC" points="68.7189941,19.5871582 5.7189941,50.7316895
							5.7189941,50.6691895 68.7189941,19.5236816 						"/>
					</g>
					<g>
						<defs>
							<path id="SVGID_95_" d="M64.7189941,31.388916L5.3928223,61.973877l3.625-23.7617188
								c19.8359375-10.1972656,39.6875-20.4267578,59.5136719-30.6669922l-3.8125,23.8457031V31.388916z"/>
						</defs>
						<clipPath id="SVGID_96_">
							<use xlink:href="#SVGID_95_"  overflow="visible"/>
						</clipPath>
						<polygon clip-path="url(#SVGID_96_)" fill="#0E80BD" points="68.7189941,19.6496582 5.7189941,50.7941895
							5.7189941,50.7316895 68.7189941,19.5871582 						"/>
					</g>
					<g>
						<defs>
							<path id="SVGID_97_" d="M64.7189941,31.388916L5.3928223,61.973877l3.625-23.7617188
								c19.8359375-10.1972656,39.6875-20.4267578,59.5136719-30.6669922l-3.8125,23.8457031V31.388916z"/>
						</defs>
						<clipPath id="SVGID_98_">
							<use xlink:href="#SVGID_97_"  overflow="visible"/>
						</clipPath>
						<polygon clip-path="url(#SVGID_98_)" fill="#0F80BE" points="68.7189941,19.7131348 5.7189941,50.8566895
							5.7189941,50.7941895 68.7189941,19.6496582 						"/>
					</g>
					<g>
						<defs>
							<path id="SVGID_99_" d="M64.7189941,31.388916L5.3928223,61.973877l3.625-23.7617188
								c19.8359375-10.1972656,39.6875-20.4267578,59.5136719-30.6669922l-3.8125,23.8457031V31.388916z"/>
						</defs>
						<clipPath id="SVGID_100_">
							<use xlink:href="#SVGID_99_"  overflow="visible"/>
						</clipPath>
						<polygon clip-path="url(#SVGID_100_)" fill="#0F81BF" points="68.7189941,19.7756348 5.7189941,50.9211426
							5.7189941,50.8566895 68.7189941,19.7131348 						"/>
					</g>
					<g>
						<defs>
							<path id="SVGID_101_" d="M64.7189941,31.388916L5.3928223,61.973877l3.625-23.7617188
								c19.8359375-10.1972656,39.6875-20.4267578,59.5136719-30.6669922l-3.8125,23.8457031V31.388916z"/>
						</defs>
						<clipPath id="SVGID_102_">
							<use xlink:href="#SVGID_101_"  overflow="visible"/>
						</clipPath>
						<polygon clip-path="url(#SVGID_102_)" fill="#0F82C0" points="68.7189941,19.8400879 5.7189941,50.9855957
							5.7189941,50.9211426 68.7189941,19.7756348 						"/>
					</g>
					<g>
						<defs>
							<path id="SVGID_103_" d="M64.7189941,31.388916L5.3928223,61.973877l3.625-23.7617188
								c19.8359375-10.1972656,39.6875-20.4267578,59.5136719-30.6669922l-3.8125,23.8457031V31.388916z"/>
						</defs>
						<clipPath id="SVGID_104_">
							<use xlink:href="#SVGID_103_"  overflow="visible"/>
						</clipPath>
						<polygon clip-path="url(#SVGID_104_)" fill="#1083C1" points="68.7189941,19.9035645 5.7189941,51.0480957
							5.7189941,50.9855957 68.7189941,19.8400879 						"/>
					</g>
					<g>
						<defs>
							<path id="SVGID_105_" d="M64.7189941,31.388916L5.3928223,61.973877l3.625-23.7617188
								c19.8359375-10.1972656,39.6875-20.4267578,59.5136719-30.6669922l-3.8125,23.8457031V31.388916z"/>
						</defs>
						<clipPath id="SVGID_106_">
							<use xlink:href="#SVGID_105_"  overflow="visible"/>
						</clipPath>
						<polygon clip-path="url(#SVGID_106_)" fill="#1083C2" points="68.7189941,19.9660645 5.7189941,51.1105957
							5.7189941,51.0480957 68.7189941,19.9035645 						"/>
					</g>
					<g>
						<defs>
							<path id="SVGID_107_" d="M64.7189941,31.388916L5.3928223,61.973877l3.625-23.7617188
								c19.8359375-10.1972656,39.6875-20.4267578,59.5136719-30.6669922l-3.8125,23.8457031V31.388916z"/>
						</defs>
						<clipPath id="SVGID_108_">
							<use xlink:href="#SVGID_107_"  overflow="visible"/>
						</clipPath>
						<polygon clip-path="url(#SVGID_108_)" fill="#1184C3" points="68.7189941,20.029541 5.7189941,51.1730957
							5.7189941,51.1105957 68.7189941,19.9660645 						"/>
					</g>
					<g>
						<defs>
							<path id="SVGID_109_" d="M64.7189941,31.388916L5.3928223,61.973877l3.625-23.7617188
								c19.8359375-10.1972656,39.6875-20.4267578,59.5136719-30.6669922l-3.8125,23.8457031V31.388916z"/>
						</defs>
						<clipPath id="SVGID_110_">
							<use xlink:href="#SVGID_109_"  overflow="visible"/>
						</clipPath>
						<polygon clip-path="url(#SVGID_110_)" fill="#1185C4" points="68.7189941,20.0939941 5.7189941,51.2375488
							5.7189941,51.1730957 68.7189941,20.029541 						"/>
					</g>
					<g>
						<defs>
							<path id="SVGID_111_" d="M64.7189941,31.388916L5.3928223,61.973877l3.625-23.7617188
								c19.8359375-10.1972656,39.6875-20.4267578,59.5136719-30.6669922l-3.8125,23.8457031V31.388916z"/>
						</defs>
						<clipPath id="SVGID_112_">
							<use xlink:href="#SVGID_111_"  overflow="visible"/>
						</clipPath>
						<polygon clip-path="url(#SVGID_112_)" fill="#1185C5" points="68.7189941,20.1564941 5.7189941,51.302002
							5.7189941,51.2375488 68.7189941,20.0939941 						"/>
					</g>
					<g>
						<defs>
							<path id="SVGID_113_" d="M64.7189941,31.388916L5.3928223,61.973877l3.625-23.7617188
								c19.8359375-10.1972656,39.6875-20.4267578,59.5136719-30.6669922l-3.8125,23.8457031V31.388916z"/>
						</defs>
						<clipPath id="SVGID_114_">
							<use xlink:href="#SVGID_113_"  overflow="visible"/>
						</clipPath>
						<polygon clip-path="url(#SVGID_114_)" fill="#1286C6" points="68.7189941,20.2199707 5.7189941,51.364502
							5.7189941,51.302002 68.7189941,20.1564941 						"/>
					</g>
					<g>
						<defs>
							<path id="SVGID_115_" d="M64.7189941,31.388916L5.3928223,61.973877l3.625-23.7617188
								c19.8359375-10.1972656,39.6875-20.4267578,59.5136719-30.6669922l-3.8125,23.8457031V31.388916z"/>
						</defs>
						<clipPath id="SVGID_116_">
							<use xlink:href="#SVGID_115_"  overflow="visible"/>
						</clipPath>
						<polygon clip-path="url(#SVGID_116_)" fill="#1287C7" points="68.7189941,20.2824707 5.7189941,51.427002
							5.7189941,51.364502 68.7189941,20.2199707 						"/>
					</g>
					<g>
						<defs>
							<path id="SVGID_117_" d="M64.7189941,31.388916L5.3928223,61.973877l3.625-23.7617188
								c19.8359375-10.1972656,39.6875-20.4267578,59.5136719-30.6669922l-3.8125,23.8457031V31.388916z"/>
						</defs>
						<clipPath id="SVGID_118_">
							<use xlink:href="#SVGID_117_"  overflow="visible"/>
						</clipPath>
						<polygon clip-path="url(#SVGID_118_)" fill="#1287C8" points="68.7189941,20.3459473 5.7189941,51.489502
							5.7189941,51.427002 68.7189941,20.2824707 						"/>
					</g>
					<g>
						<defs>
							<path id="SVGID_119_" d="M64.7189941,31.388916L5.3928223,61.973877l3.625-23.7617188
								c19.8359375-10.1972656,39.6875-20.4267578,59.5136719-30.6669922l-3.8125,23.8457031V31.388916z"/>
						</defs>
						<clipPath id="SVGID_120_">
							<use xlink:href="#SVGID_119_"  overflow="visible"/>
						</clipPath>
						<polygon clip-path="url(#SVGID_120_)" fill="#1388C9" points="68.7189941,20.4104004 5.7189941,51.5539551
							5.7189941,51.489502 68.7189941,20.3459473 						"/>
					</g>
					<g>
						<defs>
							<path id="SVGID_121_" d="M64.7189941,31.388916L5.3928223,61.973877l3.625-23.7617188
								c19.8359375-10.1972656,39.6875-20.4267578,59.5136719-30.6669922l-3.8125,23.8457031V31.388916z"/>
						</defs>
						<clipPath id="SVGID_122_">
							<use xlink:href="#SVGID_121_"  overflow="visible"/>
						</clipPath>
						<polygon clip-path="url(#SVGID_122_)" fill="#1389CA" points="68.7189941,20.4729004 5.7189941,51.6184082
							5.7189941,51.5539551 68.7189941,20.4104004 						"/>
					</g>
					<g>
						<defs>
							<path id="SVGID_123_" d="M64.7189941,31.388916L5.3928223,61.973877l3.625-23.7617188
								c19.8359375-10.1972656,39.6875-20.4267578,59.5136719-30.6669922l-3.8125,23.8457031V31.388916z"/>
						</defs>
						<clipPath id="SVGID_124_">
							<use xlink:href="#SVGID_123_"  overflow="visible"/>
						</clipPath>
						<polygon clip-path="url(#SVGID_124_)" fill="#1389CB" points="68.7189941,20.536377 5.7189941,51.6809082
							5.7189941,51.6184082 68.7189941,20.4729004 						"/>
					</g>
					<g>
						<defs>
							<path id="SVGID_125_" d="M64.7189941,31.388916L5.3928223,61.973877l3.625-23.7617188
								c19.8359375-10.1972656,39.6875-20.4267578,59.5136719-30.6669922l-3.8125,23.8457031V31.388916z"/>
						</defs>
						<clipPath id="SVGID_126_">
							<use xlink:href="#SVGID_125_"  overflow="visible"/>
						</clipPath>
						<polygon clip-path="url(#SVGID_126_)" fill="#148ACC" points="68.7189941,20.598877 5.7189941,51.7434082
							5.7189941,51.6809082 68.7189941,20.536377 						"/>
					</g>
					<g>
						<defs>
							<path id="SVGID_127_" d="M64.7189941,31.388916L5.3928223,61.973877l3.625-23.7617188
								c19.8359375-10.1972656,39.6875-20.4267578,59.5136719-30.6669922l-3.8125,23.8457031V31.388916z"/>
						</defs>
						<clipPath id="SVGID_128_">
							<use xlink:href="#SVGID_127_"  overflow="visible"/>
						</clipPath>
						<polygon clip-path="url(#SVGID_128_)" fill="#148BCD" points="68.7189941,20.6623535 5.7189941,51.8059082
							5.7189941,51.7434082 68.7189941,20.598877 						"/>
					</g>
					<g>
						<defs>
							<path id="SVGID_129_" d="M64.7189941,31.388916L5.3928223,61.973877l3.625-23.7617188
								c19.8359375-10.1972656,39.6875-20.4267578,59.5136719-30.6669922l-3.8125,23.8457031V31.388916z"/>
						</defs>
						<clipPath id="SVGID_130_">
							<use xlink:href="#SVGID_129_"  overflow="visible"/>
						</clipPath>
						<polygon clip-path="url(#SVGID_130_)" fill="#158CCE" points="68.7189941,20.7268066 5.7189941,51.8703613
							5.7189941,51.8059082 68.7189941,20.6623535 						"/>
					</g>
					<g>
						<defs>
							<path id="SVGID_131_" d="M64.7189941,31.388916L5.3928223,61.973877l3.625-23.7617188
								c19.8359375-10.1972656,39.6875-20.4267578,59.5136719-30.6669922l-3.8125,23.8457031V31.388916z"/>
						</defs>
						<clipPath id="SVGID_132_">
							<use xlink:href="#SVGID_131_"  overflow="visible"/>
						</clipPath>
						<polygon clip-path="url(#SVGID_132_)" fill="#158CCF" points="68.7189941,20.7893066 5.7189941,51.9348145
							5.7189941,51.8703613 68.7189941,20.7268066 						"/>
					</g>
					<g>
						<defs>
							<path id="SVGID_133_" d="M64.7189941,31.388916L5.3928223,61.973877l3.625-23.7617188
								c19.8359375-10.1972656,39.6875-20.4267578,59.5136719-30.6669922l-3.8125,23.8457031V31.388916z"/>
						</defs>
						<clipPath id="SVGID_134_">
							<use xlink:href="#SVGID_133_"  overflow="visible"/>
						</clipPath>
						<polygon clip-path="url(#SVGID_134_)" fill="#158DD0" points="68.7189941,20.8527832 5.7189941,51.9973145
							5.7189941,51.9348145 68.7189941,20.7893066 						"/>
					</g>
					<g>
						<defs>
							<path id="SVGID_135_" d="M64.7189941,31.388916L5.3928223,61.973877l3.625-23.7617188
								c19.8359375-10.1972656,39.6875-20.4267578,59.5136719-30.6669922l-3.8125,23.8457031V31.388916z"/>
						</defs>
						<clipPath id="SVGID_136_">
							<use xlink:href="#SVGID_135_"  overflow="visible"/>
						</clipPath>
						<polygon clip-path="url(#SVGID_136_)" fill="#168ED1" points="68.7189941,20.9152832 5.7189941,52.0598145
							5.7189941,51.9973145 68.7189941,20.8527832 						"/>
					</g>
					<g>
						<defs>
							<path id="SVGID_137_" d="M64.7189941,31.388916L5.3928223,61.973877l3.625-23.7617188
								c19.8359375-10.1972656,39.6875-20.4267578,59.5136719-30.6669922l-3.8125,23.8457031V31.388916z"/>
						</defs>
						<clipPath id="SVGID_138_">
							<use xlink:href="#SVGID_137_"  overflow="visible"/>
						</clipPath>
						<polygon clip-path="url(#SVGID_138_)" fill="#168ED2" points="68.7189941,20.9787598 5.7189941,52.1223145
							5.7189941,52.0598145 68.7189941,20.9152832 						"/>
					</g>
					<g>
						<defs>
							<path id="SVGID_139_" d="M64.7189941,31.388916L5.3928223,61.973877l3.625-23.7617188
								c19.8359375-10.1972656,39.6875-20.4267578,59.5136719-30.6669922l-3.8125,23.8457031V31.388916z"/>
						</defs>
						<clipPath id="SVGID_140_">
							<use xlink:href="#SVGID_139_"  overflow="visible"/>
						</clipPath>
						<polygon clip-path="url(#SVGID_140_)" fill="#168FD3" points="68.7189941,21.0432129 5.7189941,52.1867676
							5.7189941,52.1223145 68.7189941,20.9787598 						"/>
					</g>
					<g>
						<defs>
							<path id="SVGID_141_" d="M64.7189941,31.388916L5.3928223,61.973877l3.625-23.7617188
								c19.8359375-10.1972656,39.6875-20.4267578,59.5136719-30.6669922l-3.8125,23.8457031V31.388916z"/>
						</defs>
						<clipPath id="SVGID_142_">
							<use xlink:href="#SVGID_141_"  overflow="visible"/>
						</clipPath>
						<polygon clip-path="url(#SVGID_142_)" fill="#1790D4" points="68.7189941,21.1057129 5.7189941,52.2512207
							5.7189941,52.1867676 68.7189941,21.0432129 						"/>
					</g>
					<g>
						<defs>
							<path id="SVGID_143_" d="M64.7189941,31.388916L5.3928223,61.973877l3.625-23.7617188
								c19.8359375-10.1972656,39.6875-20.4267578,59.5136719-30.6669922l-3.8125,23.8457031V31.388916z"/>
						</defs>
						<clipPath id="SVGID_144_">
							<use xlink:href="#SVGID_143_"  overflow="visible"/>
						</clipPath>
						<polygon clip-path="url(#SVGID_144_)" fill="#1790D5" points="68.7189941,21.1691895 5.7189941,52.3137207
							5.7189941,52.2512207 68.7189941,21.1057129 						"/>
					</g>
					<g>
						<defs>
							<path id="SVGID_145_" d="M64.7189941,31.388916L5.3928223,61.973877l3.625-23.7617188
								c19.8359375-10.1972656,39.6875-20.4267578,59.5136719-30.6669922l-3.8125,23.8457031V31.388916z"/>
						</defs>
						<clipPath id="SVGID_146_">
							<use xlink:href="#SVGID_145_"  overflow="visible"/>
						</clipPath>
						<polygon clip-path="url(#SVGID_146_)" fill="#1791D6" points="68.7189941,21.2316895 5.7189941,52.3762207
							5.7189941,52.3137207 68.7189941,21.1691895 						"/>
					</g>
					<g>
						<defs>
							<path id="SVGID_147_" d="M64.7189941,31.388916L5.3928223,61.973877l3.625-23.7617188
								c19.8359375-10.1972656,39.6875-20.4267578,59.5136719-30.6669922l-3.8125,23.8457031V31.388916z"/>
						</defs>
						<clipPath id="SVGID_148_">
							<use xlink:href="#SVGID_147_"  overflow="visible"/>
						</clipPath>
						<polygon clip-path="url(#SVGID_148_)" fill="#1892D7" points="68.7189941,21.295166 5.7189941,52.4387207
							5.7189941,52.3762207 68.7189941,21.2316895 						"/>
					</g>
					<g>
						<defs>
							<path id="SVGID_149_" d="M64.7189941,31.388916L5.3928223,61.973877l3.625-23.7617188
								c19.8359375-10.1972656,39.6875-20.4267578,59.5136719-30.6669922l-3.8125,23.8457031V31.388916z"/>
						</defs>
						<clipPath id="SVGID_150_">
							<use xlink:href="#SVGID_149_"  overflow="visible"/>
						</clipPath>
						<polygon clip-path="url(#SVGID_150_)" fill="#1892D8" points="68.7189941,21.3596191 5.7189941,52.5031738
							5.7189941,52.4387207 68.7189941,21.295166 						"/>
					</g>
					<g>
						<defs>
							<path id="SVGID_151_" d="M64.7189941,31.388916L5.3928223,61.973877l3.625-23.7617188
								c19.8359375-10.1972656,39.6875-20.4267578,59.5136719-30.6669922l-3.8125,23.8457031V31.388916z"/>
						</defs>
						<clipPath id="SVGID_152_">
							<use xlink:href="#SVGID_151_"  overflow="visible"/>
						</clipPath>
						<polygon clip-path="url(#SVGID_152_)" fill="#1893D9" points="68.7189941,21.4221191 5.7189941,52.567627
							5.7189941,52.5031738 68.7189941,21.3596191 						"/>
					</g>
					<g>
						<defs>
							<path id="SVGID_153_" d="M64.7189941,31.388916L5.3928223,61.973877l3.625-23.7617188
								c19.8359375-10.1972656,39.6875-20.4267578,59.5136719-30.6669922l-3.8125,23.8457031V31.388916z"/>
						</defs>
						<clipPath id="SVGID_154_">
							<use xlink:href="#SVGID_153_"  overflow="visible"/>
						</clipPath>
						<polygon clip-path="url(#SVGID_154_)" fill="#1994DA" points="68.7189941,21.4855957 5.7189941,52.630127
							5.7189941,52.567627 68.7189941,21.4221191 						"/>
					</g>
					<g>
						<defs>
							<path id="SVGID_155_" d="M64.7189941,31.388916L5.3928223,61.973877l3.625-23.7617188
								c19.8359375-10.1972656,39.6875-20.4267578,59.5136719-30.6669922l-3.8125,23.8457031V31.388916z"/>
						</defs>
						<clipPath id="SVGID_156_">
							<use xlink:href="#SVGID_155_"  overflow="visible"/>
						</clipPath>
						<polygon clip-path="url(#SVGID_156_)" fill="#1995DB" points="68.7189941,21.5480957 5.7189941,52.692627
							5.7189941,52.630127 68.7189941,21.4855957 						"/>
					</g>
					<g>
						<defs>
							<path id="SVGID_157_" d="M64.7189941,31.388916L5.3928223,61.973877l3.625-23.7617188
								c19.8359375-10.1972656,39.6875-20.4267578,59.5136719-30.6669922l-3.8125,23.8457031V31.388916z"/>
						</defs>
						<clipPath id="SVGID_158_">
							<use xlink:href="#SVGID_157_"  overflow="visible"/>
						</clipPath>
						<polygon clip-path="url(#SVGID_158_)" fill="#1A95DC" points="68.7189941,21.6115723 5.7189941,52.755127
							5.7189941,52.692627 68.7189941,21.5480957 						"/>
					</g>
					<g>
						<defs>
							<path id="SVGID_159_" d="M64.7189941,31.388916L5.3928223,61.973877l3.625-23.7617188
								c19.8359375-10.1972656,39.6875-20.4267578,59.5136719-30.6669922l-3.8125,23.8457031V31.388916z"/>
						</defs>
						<clipPath id="SVGID_160_">
							<use xlink:href="#SVGID_159_"  overflow="visible"/>
						</clipPath>
						<polygon clip-path="url(#SVGID_160_)" fill="#1A96DD" points="68.7189941,21.6760254 5.7189941,52.8195801
							5.7189941,52.755127 68.7189941,21.6115723 						"/>
					</g>
					<g>
						<defs>
							<path id="SVGID_161_" d="M64.7189941,31.388916L5.3928223,61.973877l3.625-23.7617188
								c19.8359375-10.1972656,39.6875-20.4267578,59.5136719-30.6669922l-3.8125,23.8457031V31.388916z"/>
						</defs>
						<clipPath id="SVGID_162_">
							<use xlink:href="#SVGID_161_"  overflow="visible"/>
						</clipPath>
						<polygon clip-path="url(#SVGID_162_)" fill="#1A97DE" points="68.7189941,21.7385254 5.7189941,52.8840332
							5.7189941,52.8195801 68.7189941,21.6760254 						"/>
					</g>
					<g>
						<defs>
							<path id="SVGID_163_" d="M64.7189941,31.388916L5.3928223,61.973877l3.625-23.7617188
								c19.8359375-10.1972656,39.6875-20.4267578,59.5136719-30.6669922l-3.8125,23.8457031V31.388916z"/>
						</defs>
						<clipPath id="SVGID_164_">
							<use xlink:href="#SVGID_163_"  overflow="visible"/>
						</clipPath>
						<polygon clip-path="url(#SVGID_164_)" fill="#1B97DF" points="68.7189941,21.802002 5.7189941,52.9465332
							5.7189941,52.8840332 68.7189941,21.7385254 						"/>
					</g>
					<g>
						<defs>
							<path id="SVGID_165_" d="M64.7189941,31.388916L5.3928223,61.973877l3.625-23.7617188
								c19.8359375-10.1972656,39.6875-20.4267578,59.5136719-30.6669922l-3.8125,23.8457031V31.388916z"/>
						</defs>
						<clipPath id="SVGID_166_">
							<use xlink:href="#SVGID_165_"  overflow="visible"/>
						</clipPath>
						<polygon clip-path="url(#SVGID_166_)" fill="#1B98E0" points="68.7189941,21.864502 5.7189941,53.0090332
							5.7189941,52.9465332 68.7189941,21.802002 						"/>
					</g>
					<g>
						<defs>
							<path id="SVGID_167_" d="M64.7189941,31.388916L5.3928223,61.973877l3.625-23.7617188
								c19.8359375-10.1972656,39.6875-20.4267578,59.5136719-30.6669922l-3.8125,23.8457031V31.388916z"/>
						</defs>
						<clipPath id="SVGID_168_">
							<use xlink:href="#SVGID_167_"  overflow="visible"/>
						</clipPath>
						<polygon clip-path="url(#SVGID_168_)" fill="#1B98E0" points="68.7189941,25.0344238 5.7189941,56.1789551
							5.7189941,53.0090332 68.7189941,21.864502 						"/>
					</g>
					<g>
						<defs>
							<path id="SVGID_169_" d="M64.7189941,31.388916L5.3928223,61.973877l3.625-23.7617188
								c19.8359375-10.1972656,39.6875-20.4267578,59.5136719-30.6669922l-3.8125,23.8457031V31.388916z"/>
						</defs>
						<clipPath id="SVGID_170_">
							<use xlink:href="#SVGID_169_"  overflow="visible"/>
						</clipPath>
						<polygon clip-path="url(#SVGID_170_)" fill="#1B98E0" points="68.7189941,30.8293457 5.7189941,61.9719238
							5.7189941,56.1789551 68.7189941,25.0344238 						"/>
					</g>
					<g>
						<defs>
							<path id="SVGID_171_" d="M64.7189941,31.388916L5.3928223,61.973877l3.625-23.7617188
								c19.8359375-10.1972656,39.6875-20.4267578,59.5136719-30.6669922l-3.8125,23.8457031V31.388916z"/>
						</defs>
						<clipPath id="SVGID_172_">
							<use xlink:href="#SVGID_171_"  overflow="visible"/>
						</clipPath>
						<polygon clip-path="url(#SVGID_172_)" fill="#1B98E0" points="5.7189941,61.9719238 68.7189941,30.8283691
							68.7189941,61.8469238 5.7189941,61.8469238 						"/>
					</g>
				</g>
				<path fill="#1B98E0" d="M5.4250488,62.3059082L8.8762207,38.185791l0.1777344,0.0126953l-0.078125-0.1513672
					L69.0627441,7.2121582l-3.5654297,24.2060547l-0.1777344-0.0126953l0.0771484,0.1503906L5.4250488,62.3059082z
					 M9.2336426,38.3361816L5.8986816,61.6418457l59.2421875-30.3759766l3.4453125-23.3867188L9.2336426,38.3361816z"/>
			</g>
		</g>
	</g>
</g>
</svg>
