<?xml version="1.0" encoding="utf-8"?>
<!-- Generator: Adobe Illustrator 16.0.0, SVG Export Plug-In . SVG Version: 6.00 Build 0)  -->
<!DOCTYPE svg PUBLIC "-//W3C//DTD SVG 1.1//EN" "http://www.w3.org/Graphics/SVG/1.1/DTD/svg11.dtd">
<svg width="298px" height="443px" viewBox="452 351 298 443" version="1.1" xmlns="http://www.w3.org/2000/svg" xmlns:xlink="http://www.w3.org/1999/xlink">
    <!-- Generator: Sketch 39.1 (31720) - http://www.bohemiancoding.com/sketch -->
    <desc>Created with Sketch.</desc>
    <defs></defs>
    <g id="Group-3" stroke="none" stroke-width="1" fill="none" fill-rule="evenodd" transform="translate(452.000000, 351.000000)">
        <g id="Group-93" transform="translate(195.000000, 441.000000)">
            <polygon id="Fill-85" fill="#5A615E" points="0.021 0.762 0.034 0.762 0.034 0.733 0.021 0.733"></polygon>
            <polygon id="Fill-87" fill="#5C625F" points="0.021 0.733 0.034 0.733 0.034 0.704 0.021 0.704"></polygon>
            <polygon id="Fill-88" fill="#5F6461" points="0.021 0.703 0.034 0.703 0.034 0.674 0.021 0.674"></polygon>
            <polygon id="Fill-89" fill="#616562" points="0.021 0.674 0.034 0.674 0.034 0.645 0.021 0.645"></polygon>
            <polygon id="Fill-90" fill="#777B78" points="0.021 0.644 0.034 0.644 0.034 0.615 0.021 0.615"></polygon>
            <polygon id="Fill-91" fill="#8D918E" points="0.021 0.615 0.034 0.615 0.034 0.586 0.021 0.586"></polygon>
            <polygon id="Fill-92" fill="#929693" points="0.021 0.585 0.034 0.585 0.034 0.556 0.021 0.556"></polygon>
        </g>
        <polygon id="Fill-128" fill="#141818" points="0.972 397.98 297.608 397.98 297.608 0.361 0.972 0.361"></polygon>
        <polygon id="Fill-129" fill="#FFFFFF" points="0.972 51.929 297.608 51.929 297.608 18.216 0.972 18.216"></polygon>
        <polygon id="Fill-130" fill="#141818" points="0.972 29.838 297.608 29.838 297.608 0.361 0.972 0.361"></polygon>
        <polygon id="Fill-131" fill="#FFFFFF" points="27.376 104.974 139.828 104.974 139.828 98.002 27.376 98.002"></polygon>
        <polygon id="Fill-132" fill="#FFFFFF" points="75.874 127.306 87.381 127.306 87.381 120.332 75.874 120.332"></polygon>
        <polygon id="Fill-133" fill="#FFFFFF" points="97.144 127.306 108.651 127.306 108.651 120.332 97.144 120.332"></polygon>
        <polygon id="Fill-134" fill="#FFFFFF" points="118.965 127.306 130.473 127.306 130.473 120.332 118.965 120.332"></polygon>
        <polygon id="Fill-135" fill="#F9CD30" points="48.713 149.637 139.828 149.637 139.828 142.662 48.713 142.662"></polygon>
        <polygon id="Fill-136" fill="#FFFFFF" points="75.874 171.968 139.828 171.968 139.828 164.991 75.874 164.991"></polygon>
        <polygon id="Fill-137" fill="#E15A37" points="155.149 171.968 267.604 171.968 267.604 164.991 155.149 164.991"></polygon>
        <polygon id="Fill-138" fill="#FFFFFF" points="155.149 149.637 190.854 149.637 190.854 142.662 155.149 142.662"></polygon>
        <polygon id="Fill-139" fill="#FFFFFF" points="220.382 149.637 256.088 149.637 256.088 142.662 220.382 142.662"></polygon>
        <polygon id="Fill-140" fill="#FFFFFF" points="155.149 127.306 219.104 127.306 219.104 120.332 155.149 120.332"></polygon>
        <polygon id="Fill-141" fill="#FFFFFF" points="72.331 19.23 136.287 19.23 136.287 12.256 72.331 12.256"></polygon>
        <polygon id="Fill-142" fill="#FFFFFF" points="151.605 19.23 215.563 19.23 215.563 12.256 151.605 12.256"></polygon>
        <polygon id="Fill-143" fill="#141818" points="72.331 45.15 136.287 45.15 136.287 38.175 72.331 38.175"></polygon>
        <polygon id="Fill-144" fill="#FFFFFF" points="27.376 201.462 85.234 201.462 85.234 194.487 27.376 194.487"></polygon>
        <polygon id="Fill-145" fill="#FFFFFF" points="66.582 223.794 89.205 223.794 89.205 216.82 66.582 216.82"></polygon>
        <polygon id="Fill-146" fill="#F9CD30" points="48.212 246.122 70.46 246.122 70.46 239.15 48.212 239.15"></polygon>
        <polygon id="Fill-147" fill="#FFFFFF" points="52.329 268.454 85.234 268.454 85.234 261.479 52.329 261.479"></polygon>
        <polygon id="Fill-148" fill="#FFFFFF" points="93.115 268.454 150.976 268.454 150.976 261.479 93.115 261.479"></polygon>
        <polygon id="Fill-149" fill="#F9CD30" points="93.115 246.122 126.021 246.122 126.021 239.15 93.115 239.15"></polygon>
        <polygon id="Fill-150" fill="#FFFFFF" points="102.834 223.794 135.74 223.794 135.74 216.82 102.834 216.82"></polygon>
        <polygon id="Fill-151" fill="#FFFFFF" points="191.448 268.454 249.307 268.454 249.307 261.479 191.448 261.479"></polygon>
        <polygon id="Fill-152" fill="#FFFFFF" points="191.448 246.124 224.351 246.124 224.351 239.15 191.448 239.15"></polygon>
        <polygon id="Fill-153" fill="#FFFFFF" points="191.448 223.794 224.351 223.794 224.351 216.82 191.448 216.82"></polygon>
        <polygon id="Fill-154" fill="#FFFFFF" points="191.448 201.462 224.351 201.462 224.351 194.487 191.448 194.487"></polygon>
        <polygon id="Fill-155" fill="#FFFFFF" points="125.707 201.462 183.565 201.462 183.565 194.487 125.707 194.487"></polygon>
        <polygon id="Fill-156" fill="#E15A37" points="150.659 223.794 183.565 223.794 183.565 216.82 150.659 216.82"></polygon>
        <polygon id="Fill-157" fill="#FFFFFF" points="150.659 246.124 183.565 246.124 183.565 239.15 150.659 239.15"></polygon>
        <polygon id="Fill-158" fill="#FFFFFF" points="27.376 297.948 139.828 297.948 139.828 290.975 27.376 290.975"></polygon>
        <polygon id="Fill-159" fill="#FFFFFF" points="75.874 320.28 139.828 320.28 139.828 313.304 75.874 313.304"></polygon>
        <polygon id="Fill-160" fill="#FFFFFF" points="55.038 342.609 100.702 342.609 100.702 335.634 55.038 335.634"></polygon>
        <polygon id="Fill-161" fill="#FFFFFF" points="75.874 364.938 139.828 364.938 139.828 357.964 75.874 357.964"></polygon>
        <polygon id="Fill-162" fill="#FFFFFF" points="155.149 364.938 267.604 364.938 267.604 357.964 155.149 357.964"></polygon>
        <polygon id="Fill-163" fill="#FFFFFF" points="118.702 342.609 182.656 342.609 182.656 335.634 118.702 335.634"></polygon>
        <polygon id="Fill-164" fill="#F9CD30" points="155.149 320.28 219.104 320.28 219.104 313.304 155.149 313.304"></polygon>
    </g>
</svg>
