<?xml version="1.0" encoding="utf-8"?>
<!-- Generator: Adobe Illustrator 16.0.0, SVG Export Plug-In . SVG Version: 6.00 Build 0)  -->
<!DOCTYPE svg PUBLIC "-//W3C//DTD SVG 1.1//EN" "http://www.w3.org/Graphics/SVG/1.1/DTD/svg11.dtd">

<svg width="679px" height="366px" viewBox="202 149 679 366" version="1.1" xmlns="http://www.w3.org/2000/svg" xmlns:xlink="http://www.w3.org/1999/xlink">
    <!-- Generator: Sketch 39.1 (31720) - http://www.bohemiancoding.com/sketch -->
    <desc>Created with Sketch.</desc>
    <defs></defs>
    <g id="Created-with-Sketch." stroke="none" stroke-width="1" fill="none" fill-rule="evenodd" transform="translate(202.000000, 149.000000)">
        <g id="Group-2">
            <g id="Group" transform="translate(0.000000, 335.000000)">
                <path d="M0.348,15.962 C0.348,15.962 -3.862,23.801 26.026,30.328 L651.784,30.328 C651.784,30.328 672.72,28.988 678.232,19.117 L678.268,13.713 L0.348,15.962" id="Fill-81" fill="#A9AAA6"></path>
                <path d="M0.493,0.143 L678.486,0.143 L678.486,17.55 C678.486,17.55 679.508,19.884 671.524,19.299 L6.876,19.299 C6.876,19.299 0.631,21.052 0.05,16.976 L0.493,0.143" id="Fill-82" fill="#FFFFFF"></path>
                <path d="M646.997,10.318 C646.997,10.989 646.549,11.531 645.99,11.531 L622.921,11.531 C622.363,11.531 621.918,10.989 621.918,10.318 C621.918,9.632 622.363,9.081 622.921,9.081 L645.99,9.081 C646.549,9.081 646.997,9.632 646.997,10.318" id="Fill-83" fill="#A9AAA6"></path>
                <path d="M293.439,0.279 C293.439,0.279 290.825,8.999 299.534,9.865 L378.189,9.865 C378.189,9.865 386.554,10.951 385.441,0.579 L293.439,0.279" id="Fill-84" fill="#A9AAA6"></path>
            </g>
            <path d="M611.824,335.065 L611.824,26.04 C611.824,12.009 600.354,0.538 586.332,0.538 L92.26,0.538 C78.236,0.538 66.762,12.009 66.762,26.04 L66.762,335.065 L611.824,335.065" id="Fill-94" fill="#141818"></path>
            <polygon id="Fill-95" fill="#00B3DA" points="84.292 316.098 594.291 316.098 594.291 19.669 84.292 19.669"></polygon>
        </g>
    </g>
</svg>
